/* XPM */
static char *_fa54b3c1d5d45eae7cec881915f1e785jLQoKgb59QXK1L9[] = {
/* columns rows colors chars-per-pixel */
"64 64 256 2 ",
"   c #1C0B03",
".  c #1A0602",
"X  c #1E1209",
"o  c #210D05",
"O  c #261808",
"+  c #291C15",
"@  c #351B0E",
"#  c #2C250C",
"$  c #2C2106",
"%  c #2B2513",
"&  c #2C241B",
"*  c #292617",
"=  c #382819",
"-  c #32230B",
";  c #372C28",
":  c #2B1E25",
">  c #462B18",
",  c #4A331A",
"<  c #57371B",
"1  c #572C1D",
"2  c #633A1E",
"3  c #483729",
"4  c #563D25",
"5  c #483635",
"6  c #452F32",
"7  c #673723",
"8  c #753F25",
"9  c #66431D",
"0  c #57442B",
"q  c #584535",
"w  c #5D523C",
"e  c #4B4732",
"r  c #674726",
"t  c #754927",
"y  c #795529",
"u  c #664B39",
"i  c #6A5439",
"p  c #775936",
"a  c #74502F",
"s  c #706635",
"d  c #503C43",
"f  c #584847",
"g  c #5B524B",
"h  c #654D49",
"j  c #695848",
"k  c #785749",
"l  c #685657",
"z  c #6F5253",
"x  c #75665B",
"c  c #766A51",
"v  c #735962",
"b  c #786866",
"n  c #7B6E68",
"m  c #883E2E",
"M  c #865728",
"N  c #855B36",
"B  c #94572B",
"V  c #A95837",
"C  c #97672B",
"Z  c #966937",
"A  c #98753A",
"S  c #8C6731",
"D  c #A66C33",
"F  c #A87938",
"G  c #B77B36",
"H  c #B26B37",
"J  c #D57C3A",
"K  c #D87F3B",
"L  c #C87739",
"P  c #825A4B",
"I  c #855D51",
"U  c #876649",
"Y  c #987748",
"T  c #8A6455",
"R  c #9C6D5C",
"E  c #946959",
"W  c #857758",
"Q  c #99765A",
"!  c #917047",
"~  c #A67946",
"^  c #BD7B42",
"/  c #A5795A",
"(  c #A7674C",
")  c #85786A",
"_  c #9E7161",
"`  c #957864",
"'  c #906E71",
"]  c #A27463",
"[  c #A97B67",
"{  c #B17D6A",
"}  c #9C5C56",
"|  c #C97847",
" . c #E26850",
".. c #A9853A",
"X. c #BB863A",
"o. c #C68937",
"O. c #D6823A",
"+. c #D9843B",
"@. c #DC8C3C",
"#. c #D58A3C",
"$. c #CA973A",
"%. c #DD933D",
"&. c #DD9A3D",
"*. c #D4963B",
"=. c #E18C3D",
"-. c #E1943C",
";. c #E49B3D",
":. c #E99E3D",
">. c #D3AC3E",
",. c #CEA53C",
"<. c #EAA33E",
"1. c #E8A53D",
"2. c #E3B33E",
"3. c #938556",
"4. c #AA8345",
"5. c #B98A47",
"6. c #BC9346",
"7. c #A9815C",
"8. c #B98C59",
"9. c #988877",
"0. c #938B6C",
"q. c #B98769",
"w. c #B88976",
"e. c #AE936E",
"r. c #B5B06E",
"t. c #BDB95E",
"y. c #C78847",
"u. c #D98945",
"i. c #C89848",
"p. c #D89747",
"a. c #C89655",
"s. c #D09158",
"d. c #E58A49",
"f. c #E79947",
"g. c #EB9D53",
"h. c #E79856",
"j. c #E98F50",
"k. c #D6A947",
"l. c #D8B145",
"z. c #D9A757",
"x. c #CAA553",
"c. c #ECA442",
"v. c #ECAA43",
"b. c #E7A749",
"n. c #F2AA47",
"m. c #E8B845",
"M. c #F9BB48",
"N. c #EDA253",
"B. c #E9A955",
"V. c #E9B658",
"C. c #F6BB56",
"Z. c #F1A752",
"A. c #C79479",
"S. c #C6926D",
"D. c #DAA967",
"F. c #D1B372",
"G. c #E9BA66",
"H. c #F7BB63",
"J. c #ECAE6F",
"K. c #FCC34B",
"L. c #FAC948",
"P. c #FCD44B",
"I. c #FBCB55",
"U. c #FBC55B",
"Y. c #FCCB5C",
"T. c #F8C558",
"R. c #F4CB52",
"E. c #FBC663",
"W. c #FCCC63",
"Q. c #FCCC6B",
"!. c #F5C467",
"~. c #FCD063",
"^. c #FDD26B",
"/. c #F8C874",
"(. c #FCD274",
"). c #FAD67B",
"_. c #EDC96F",
"`. c #E7DA79",
"'. c #947B82",
"]. c #A47C8C",
"[. c #978988",
"{. c #9E948A",
"}. c #98908C",
"|. c #A89987",
" X c #A69A98",
".X c #B18793",
"XX c #B1AD91",
"oX c #B7AAA9",
"OX c #BCB5AD",
"+X c #AB9FA1",
"@X c #CB9684",
"#X c #CDB58A",
"$X c #C498A4",
"%X c #C5BAB8",
"&X c #C3B5AB",
"*X c #E1BA91",
"=X c #CAC886",
"-X c #D5D392",
";X c #F2CB8B",
":X c #E9DA89",
">X c #FAD885",
",X c #F2CD93",
"<X c #E8DB98",
"1X c #F6D598",
"2X c #E9C78D",
"3X c #DCE38A",
"4X c #DAE399",
"5X c #EBE689",
"6X c #E3E593",
"7X c #ECE595",
"8X c #E4E49C",
"9X c #EBE69B",
"0X c #ECE99C",
"qX c #EBE994",
"wX c #F2E994",
"eX c #F2E89A",
"rX c #F1E68B",
"tX c #CBDCA7",
"yX c #D2D5AF",
"uX c #F1CEA3",
"iX c #F4D2A4",
"pX c #F4D3AA",
"aX c #E4D4A5",
"sX c #CCE0A8",
"dX c #DBE3A4",
"fX c #DCE5AB",
"gX c #D4E1A8",
"hX c #D7E4B5",
"jX c #CEE0B6",
"kX c #E3E4A3",
"lX c #EDEAA4",
"zX c #EAE8AA",
"xX c #F2EBA2",
"cX c #F2EBAB",
"vX c #F2EAB3",
"bX c #E9EAB4",
"nX c #CEC5C4",
"mX c #D3CBC9",
"MX c #DBD6C7",
"NX c #DBD4D3",
"BX c #E4DDDC",
"VX c #EBDAC0",
"CX c #DAE7C5",
"ZX c #D9E7D0",
"AX c #E7E3DD",
"SX c #EFE9C6",
"DX c #EBE7E5",
"FX c #F2EEED",
"GX c #F4F3F2",
"HX c white",
"JX c #FEFEFF",
"KX c #FEFEFD",
"LX c #FFFEFE",
"PX c #FAF7F5",
"IX c #F4F2EC",
"UX c #B4C398",
/* pixels */
"E q.w.[ [ { [ ] T k R ] ] ] / [ q.q 9.KXHXHXHXHXHXHXHXHXHXHXHXHXHXHXHXHXHXHXHXHXHXHXHXHXHXHXHXHXHXHXHXHXHXHXHXHXHXHXHXHX%X5 .X] ",
"j T T T k j u u k T _ _ _ _ ] [ u [.PXHXHXHXHXHXHXHXHXHXHXHXHXHXHXHXHXHXHXHXHXHXHXHXHXHXHXHXHXHXHXHXHXHXHXHXHXHXHXHXHXHXKXl T _ ",
"k I k T T E _ ] _ ] _ R _ ] ] P n GXHXHXHXHXHXHXHXHXHXHXHXHXHXHXHXHXHXHXHXHXHXHXHXHXHXHXHXHXHXHXHXHXHXHXHXHXHXHXHXHXHXHXHX%X5 ' ",
"T [ [ { [ ] ] _ R R _ _ R R ] 5 BXHXHXHXHXHXHXHXHXHXHXHXHXHXHXHXHXHXHXHXHXHXHXHXHXHXHXHXHXHXHXHXHXHXHXHXHXHXHXHXHXHXHXHXHXDX6 ' ",
"T [ ] [ ] ] ] _ ] R R R R R T 5 PXHXHXHXNXmXDXKXHXKXHXHXHXPXFXHXHXHXHXHXGXHXHXHXHXHXHXHXHXHXHXHXHXHXHXHXHXHXHXHXHXHXHXHXHXFX6 ' ",
"U [ ] ] ] ] _ R E E E R R E P x HXHXHXHXnXl 5  X%X XNXmXDXf h mXHXHXHXHX{.mXf [.HXHXHXHX[.l b BXGXoXPXnXDXl b PXHXHXHXHXHXPX5 T ",
"T [ [ ] ] ] E T T I k k P E k ) HXHXHXHXHX%XOXmXv l &X' BXf oXPXHXHXHXHX' nXh +XPXHXHXKXb mXGXnXmXf oXb n [.l FXHXHXHXHXHXGX5 T ",
"T E T [ ] ] / R R R R R R R T l HXHXHXHXHX%X%XmXl f &X' PXoXx %XHXHXHXHXb FX%Xn oXHXHXKXv [.GXOXnXl [.v h OXBXPXPXHXHXHXHXDX6 ' ",
"T ] T q T / / R R R R R R R T ; FXHXHXHXHXNXNXAX XOXBX[.HXoXb AXHXHXHXHX' FXn 9.GXHXHXHX) FXHX XNX[.GXNXv l '.NX XHXHXHXHXnX5 ' ",
"U [ ] / k 3 6 3 3 3 3 3 = + + 3 nXHXHXHXHXHXHXHXHXHXHXPXHXHXHXHXHXHXHXHXPXHXHXHXHXHXHXHXPXHXHXPXKXHXHXHXKXDXFXHXHXHXHXHXHX' z ' ",
"U / / / / 7.U p u 3 3 u P E / / f DXHXHXHXHXHXHXHXHXHXHXHXHXHXHXHXHXHXHXHXHXHXHXHXHXHXHXHXHXHXHXHXHXHXHXHXHXHXHXHXHXHXHXBX6 z 5 ",
"U / / 7./ / / [ { q.q.S.[ ] _ { k f FXHXHXHXHXHXHXHXHXHXHXHXHXHXHXHXHXHXHXHXHXHXHXHXHXHXHXHXHXHXHXHXHXHXHXHXHXHXHXHXHXHX'.z .X].",
"Y 7.7.7.S.A.A.A.A.A.S.q.{ T T P E h f FXHXHXHXHXHXHXHXHXHXHXHXHXHXHXHXHXHXHXHXHXHXHXHXHXHXHXHXHXHXHXHXHXHXHXHXHXHXHXHXoX5 $X.X].",
"/ q.q.q.w.w.w.w.w.A.A.@X@X@XA._ { w.T ; ) AXHXHXHXHXHXHXHXHXHXHXHXHXHXHXHXHXHXHXHXHXHXHXHXHXHXHXHXHXHXHXHXHXHXHXPXNXv d $X$X' ' ",
"k [ q.w.A.w.w.w.] u = ; h 9.T I { w.w.{ z ; g  XNXGXKXHXKXHXHXHXHXHXHXHXHXHXHXHXHXHXHXHXHXHXHXHXHXHXHXHXHXKXBX Xl ; v .X.X.X.X.X",
"e.3.c q 5 3 3 3 q W #X|.= r t r > T w.@XA..X[ h ; 5 h l x ) [. X X X{. XFXHXHXHXHXHXHXKXPXGXGXGXDXNXnXOX[.f ; d ' ].].d f v '..X",
"r.5X:X7X<XkX9X9XxX9X=X0 y.h.g.g.u.t 3 j 3 ; ; 3 e 3.XX=Xr.r.0.0.0.3.3.3 oXHXFXx l g g f f f f ; g l v v ' ]..X.X]..X].'.: & ; & ",
"t.5XwXeXqXwX0XwXqXqXc | g.g.g.g.g.h.a -X=X=X=X-X6X6X3X3X3X6X6X0X8X6X6Xs oXHXBX) yXyX-XtXhXCXCX|.l b .X$X$X.X.X.X' v 6 + g XXUXXX",
"t.5X5X5XrX5XrXeXxX:Xu f.g.N.g.g.g.g.h.3.6X6X-X6X0X6X3X3X6X6X0X0X6X3X3Xs %XHXNX) zX4XgXhXCXgXgXjXZXXXg 6 ; 6 : X : g }.yXtXsX0.e ",
"t.`.5X5X`.5X5XwXeX=Xy N.g.N.g.g.g.j.a.q 0.i 0 0.zX0X6X6X0XvXlX8X3X3X3Xw NXHX%X0.dX4XfXhXhXgXsXtXjXjXCXIXAXMXjXtXtXZXZXjXsXsXc 7.",
"t.`.).`.5XrXrXwXwX=Xp g.g.g.p.H < @ O + p h.h.p XX9XqXlXcXlX0X6X6X6X3Xe FXHX{.|.kXdXfXhXhXtXtXtXsXsXjXCXCXjXtXtXjXCXhXtXtX-XU J.",
"t.).8.e `.5XwXeXwX6Xp N.y.t @   o o O a g.N.g.s.W lX0XlXlXlXlX0X8X6X-Xq KXPXx -X8XdXhXhXhXsXgXsXtXtXCXhXsXsXtXsXjXhXsXtX-X0.4.E.",
"t.F.N p :XrXwXeXxX0Xj r O o o o o o t N.N.N.g.s.c cXlXxXxXlXlXlX8X6X=Xl HXNXx zXkXdXbXfXgXdXfXgXgXhXCXhXgXgXgXgXfXgX4X-X=Xi C.U.",
"F.5.y.A :XwX9X<Xe.r t r > o o o @ Z g.N.g.g.g.Y e.xXxX0XcXxXlXlXlX8Xr.) HX) #XkX4XkXfXfXdXdXdXfXhXCXCXhXgXgXgXfXdX4X4X-XW a.C.E.",
"e.~ 5.4.rXxX0.` N g.N.N.g.y.D Z y.g.N.g.g.N.s.q W r.zXlXcXlXlXxXxXlX9.+XNXn kXkX6XkXkXkXdXfXdXfXCXOXhXfXdXfXfXfXdX4X-Xe.! H.U.C.",
"p V.X...).F.E u y.N.N.N.N.N.N.N.N.g.N.N.h.~ 0 D.z.a j kXzXzXcXcXcXvX) mXb gXkX8X8X8XkXkXkXdXdXkXCXe yXkXdXkXdX8XkX<Xq.N H.E.E.J.",
"4.Y...4.^.7.7.a y.N.^ D p.N.N.N.N.g.s.Z 4 N b.c.:.c.Z j cXlXxXcXcXvXx oX0.cX0X8X9X9X8XkXkXkXkXkX&Xz e.kXkXkX8X8X8Xe.N H.E.W.H.H.",
"k.I.....V.4.5.6.a p.Z.Z N y r r r t y F ;.v.c.<.<.<.Z.U W vXcXvXcX#Xx ) lXxX0XqX9X9X9X8XkXkXkXuXT #XU :X8X8XqX<X3.! C.W.!.E./.;X",
"k.P.,.A 4.V.k.i.D.i S r b.<.<.<.<.c.<.c.<.c.v.c.<.<.b.e.; e.aXvXcX0.n kXxX9XwX7X9X7X0X6X9X8X8X*X! /.p :XqX7XqXc ~ H.W.V.Z Q./.8.",
",.>.m.y A K.R.6._.vX9.S <.<.<.<.<.<.<.c.Z.V.v.v.<.X.) nXMXOX) 0.vXaXvXcXeXeX5X7X7X7XwX7X9X9X<X/ z.Q.p ).7X:Xc 8.H.Y.W.4.4.E./.a.",
"$.,.L.S y K.m.5._.2X0 p.<.<.<.<.F y y p / B.n.<.*.9.PXPX{.n n n r.cXxXxX0XwX7X7X7XwX7X7X7X7XF.8.Q.W.S :X:XW x.H.Y.W.x.6.a.Q.x.G.",
"X.2.L.>.A v.o.b.F.0 O *.<.<.&.a ) OXmX%X{.q y.b.~ FXHX X& & : ; e <XeXeX9X7XwXwX5XrXwX7XeX-X7./.W.Y.S :XW x.E.Y.Y.!.5.a.D.G.z.E.",
"..2.L.L.L.$.b.h.0 # X G <.<.A MXHXHXKXPXKXAXg 5.|.HXDX; & & & & & =XeXeXwXxX7XwXwX7XeX0XvX&X1XQ.Y.Y.A ~ 4.U.Y.Y.Y.4.B.a.D.a.E.W.",
",.2.L.L.m.m.M.9 $ # X C <.*.XXHXHXDXx q x %XBXq MXHX{.& & & & & * r.wXwXwXeXvX9X=X0.W 0. XbX>Xx.k.W.5.t T.Y.Y.Y.6.V.H.i.a.!.U.W.",
">.L.m.L.l.L.C $ # $   M <.Z IXHXIXw # % % ; mX[.&XHXn & & & & & * r.wXwXeXSXyXw * % % % & i /.V.6.W.J.k.I.I.I.F k.U.E.6.V.Y.U.U.",
">.P.>.>.L.,.- # # O   9 <.Y HXHXOX# # % % % j &X{.KXn & & & & & & -X7X#X0.W = % & & & % & # A Y...C.H.Y.I.I...k.Y.Y.Y.W.Y.T.U.U.",
">.P.m.l.m., $ # # $   < <.Q HXHX9.% % % % % % XX9.HX+X& & % & & ; 0.p S Z O O O % & & * & # r I.6.V.W.Y.I...k.Y.Y.T.T.Y.Y.T.Y.Y.",
">.P.L.P.y $ # # % O   @ 1.W HXHX9.% % % % % % 0.n PXIXf % % = 4 < 5.n.v.r     O % % & % % O y Y.l.i.~.I.i.k.~.^.E.Y.Y.Y.Y.Y.!.Q.",
">.P.P.l.- $ # # # O   O 1.i PXHX&X# % % % % % i r [.AXAX{.{.0.0 c.v.v.o.o     O % & % % % # X.Y.I.F Y.R.X.(.wXW.Y.Y.Y.Y.Y.Y.C.(.",
">.P.P.y $ # # # # O   o $.C OXHXFXg # # # % = < b.F k c x j y &.<.<.v.M       O % % O O O 4 Y.Y.~.x.k.6.V.>X(.Y.Y.Y.Y.Y.W.E.!.!.",
"l.P.L.> # # # # # $     o.&.q NXHXmX= # % = = F <.b.b.k.o.*.<.<.<.<.v.M .     o O O     o Z ~.~.W.W...4.W.~.W.Y.Y.Y.^.E.Y.C.W.i.",
"l.P.,.# # # # # # O   o X.<.$.0 oXDXAX|.c 4 C <.<.c.<.<.<.<.<.<.v.<.<.D .           . O U 6.~.~.^.>XG.5.Y.Y.W.W.Q.Q.Q.W.E.G.E.p.",
"l.P...# # # # # # O     o.1.<.*.C a i p M G :.:.<.c.:.<.<.<.<.c.v.<.<.;.,           9 a.U V.Y.W.(.).W.Y.Y.W.(.1X1X).W.W.V.E.B.V.",
"F.P.A # # % % # # O   @ ;.<.<.<.<.<.;.;.1.:.;.;.f.f.:.<.:.:.<.:.<.<.<.<.&.S < < t X.b.a.p W.Y.^.).Q.W.Y.W.(.1X>X).(.W.W.H.U.B.U.",
"l.P...# % % % # # O   , <.<.<.<.<.<.:.;.-.;.o.r D :.;.:.:.1.:.:.<.:.<.<.<.c.v.<.<.b.z.r x.Y.W.^.(.Q.Y.~.(.).>X(.).>XW.Y.U.T.C.U.",
"l.P.k.$ # # # # # O   S v.c.:.<.:.:.:.;.+.t ` {., D f.:.;.:.:.<.:.<.<.<.<.c.<.v.b.F 4 6.~.W.E.^.^.Q.W.^.1X).).(.>X(.W.T.Y.T.Y.Y.",
"k.L.`.0 # $ $ $ $ o @ *.1.:.-.;.;.:.:.o.7 V ( AXyX3 = t F #.f.c.c.v.c.c.c.p.G t > p V.~.~.H.Q./.(.Q.^.).^.^.^.^.Q.W.Y.Y.Y.Y.I.T.",
"k.I.:X|.$ $ O O O o B ;.-.-.@.-.-.;.:.G L m  .( E 3 &X{.e , 9 y y r r 4 , , a 4.D.(.^.~.Y.W./.G.~.W.~.~.Y.W.W.W.W.W.Y.Y.Y.I.I.I.",
"Y < = = = - O O O M @.%.%.-.-.=.-.:.;.;.-.H m  . .> 3 x 3 |.u p r.#X=XMX9.G.Q.z.G.Q.~.~.W.Q.!.G.Q.W.Y.W.Y.W.W.W.W.E.E.Y.Y.I.I.T.",
"> M L t h.s.~ A 7 -.-.;.;.;.-.;.-.;.:.;.:.f.B m  .7 O % + O a Z <XzXvXSXQ W.W.x.(.^.~.~.W.~.G.^.W.~.Y.W.Y.z.a.6.5.( Z S S p p Y ",
"S.d.V B d.d.j.^ M ;.-.;.;.;.;.;.-.-.;.;.-.;.f.V 7 1 O + O o G Z 2X<XzX|.8.Y.V.z.(.~.~.W.W.^.z.W.T.W.Y.W.A 4 P Q R w.A.*X*XaX*Xq ",
"y.d.8 L d.=.d.t H -.@.@.-.o.-.-.@.@.@.%.=.@.-.-.p.F < > < G p.! p _.<Xi /.U.i.T.Q.~.~.W.W.^.z.W.V.Q.W.~.Y Q 3 = 3 3 3 = = + = = ",
"| d.8 u.d.d.u.7 J K H L =.B L @.+.+.@.=.@.@.@.%.-.f.%.@.%.o.y D.z.3.F.! E.T.6.W.(.~.W.W.W.G.V.V.H.~.Y.~.4.#XuXQ 3 & = = u Q #Xi ",
"^ j.7 d.g.j.H t +.K B L J 2 L +.+.J +.@.@.@.@.@.-.=.O.C t r U /.C.A c a.U.B.i.W.W.Y.^.W.W.z.W.z.W.Y.Y.W.~ #XpXiXuX2X,X,XuXuXuXc ",
"^ g.< N.Z.N.y C -.%.M L J 2 J +.+.+.O.+.@.@.@.@.-.-.%.#.%.p.r G.C.i., G.U.i.B.Y.Y.W.^.W.W.!.!.i.W.W.Y.W.A @XiXiXiXiXiXiXiXuXuXU ",
"^ h.> B.V.B.7 G :.;.t #.+.1 L J +.O.+.O.#.@.@.=.@.@.@.-.-.-.B ~ C.Z.4.!.T.6.C.T.Y.Y.W.W.V.W.B.V.U.W.Y.W.Y e.pXiXiXiXiXiXiXiXiXk ",
"^ u.= B.C.B.> o.1.;.9 #.%., L J J J +.+.@.@.@.@.@.@.@.@.@.@.G r k.B.E.U.M.y.T.Y.I.Y.W.Y.T.Y.p.Y.V.~.Y.W.~ Q 1X1XiXiX1X1X,X,X,Xw ",
"X.p.> V.C.V.> $.<.1.< %.:., O.O.J O.+.+.+.+.+.+.+.@.@.@.@.@.#.= C.i.W.T.i.m.I.T.I.T.I.I.I.b.C.U.U.~.Y.~.5.U 1X,X,X,X,X,X;X;X;X0 ",
"G u.> V.C.B.> *.<.1.< *.:.< X.@.+.+.+.O.+.+.+.+.+.J +.@.+.@.u.> b.b.z.M.o.K.K.K.K.M.K.K.K.M.C.T.Y.Y.Y.).#Xk 1X,X,X;X;X;X;X;X2X0 ",
"X.p.= n.Z.f.> *.:.1., #.:.y D -.@.O.J J J J J J J J O.O.O.+.+.> $.M.k.$.X.M.M.M.K.K.K.K.L.M.C.(.(.!.a.W u q e.2X,X,X,X,X;X;XF.i ",
"X.p.> B.Z.f.> o.1.<.< X.:.D t ;.;.%.@.O.#.@.@.J J +.+.J O.#.u.> &.M.M.*.v.M.K.K.K.K.K.K.L.n.g.q.u 4 N s.J.7.i e 3 3 3 0 0 0 4 ~ ",
"5.p., B.Z.g.< G <.1.y C :.*.> &.:.;.;.&.&.%.*.%.#.@.@.#.#.@.#.- M.M.M.M.M.K.K.K.K.K.K.L.I.H 1 t y.j.h.h.h.N.J.J.D.J.D.D.s.D.s.h.",
"X.p., N.g.g.B C :.:.G < ;.:.2 G :.;.:.;.;.;.%.;.%.&.;.%.#.-.G 0 ^.K.K.M.M.K.K.K.n.n.K.K.$.@ B d.d.d.j.j.j.j.h.h.h.h.h.h.h.h.h.h.",
"X.b.r J.N.f.s.M -.;.-.> o.-.D t -.-.&.-.f.p.-.&.&.;.-.;.%.;.t e.1XT.M.M.M.M.M.n.f.M.K.m.> H 7 u.d.d.j.j.j.j.j.h.g.h.h.j.d.h.j.d."
};
